<svg version="1.1" id="Layer_1" xmlns="http://www.w3.org/2000/svg" x="0" y="0" viewBox="0 0 1800 300" xml:space="preserve"><style>.st1{fill:#fff}</style><path class="st1" d="M155.38 257.11l32.98-126.49h35.99l48.34 68.88 17.95-68.88h34.44l-31.1 126.49h-33.16l-51.5-71.76-17.83 71.76zM463.82 130.62l-7.39 32.55h-71.42s-20.32 1.23-27.3 20.73-8 40.43 8 40.43h71l-8.62 32.78h-80.03s-31.81-6.3-33.65-38.73 17-67.52 42.88-81.27c0 0 15.09-6.49 31.77-6.49h74.76zM519.71 163.17h70l7.38-32.55h-73.33a65.754 65.754 0 00-28.68 6.49c-23.45 12.47-43.63 42.49-45.82 72.16l-.26.46h.22c-.22 2.88-.25 5.77-.11 8.65 1.85 32.43 33.66 38.73 33.66 38.73h80l8.66-32.78h-71c-8.58 0-12.23-6-12.74-14.6h88.18l7.94-30.56h-89.22c8.28-14.93 25.12-16 25.12-16zM129.59 66.04h-9.38l-49.29 43.18h38.15L70.92 257.11h58.67l46.97-191.07z"/><path d="M160.19 34.62c46.72 0 88 25.34 113.06 64.11h37.48c-24.33-55.67-81-94.71-146.94-94.71C75.62 4.02 4.13 73.73 4.13 159.73a152.433 152.433 0 0032.19 93.73 162.28 162.28 0 01-14.53-67.49c0-83.59 61.96-151.35 138.4-151.35z" fill="#29a9e1"/><path class="st1" d="M597.51 237.8c.71-1.64 1.73-3.12 3-4.37 2.63-2.56 6.15-3.99 9.82-4 1.84-.01 3.66.35 5.36 1.06 1.64.68 3.14 1.66 4.41 2.9 1.27 1.25 2.29 2.73 3 4.37.75 1.72 1.13 3.57 1.11 5.44.02 1.9-.36 3.78-1.11 5.53-.7 1.65-1.72 3.14-3 4.4a13.445 13.445 0 01-4.41 2.91c-1.7.68-3.52 1.02-5.36 1-1.84.02-3.67-.32-5.38-1-1.66-.67-3.17-1.66-4.44-2.91a13.817 13.817 0 01-3-4.4c-.75-1.75-1.13-3.63-1.11-5.53-.01-1.86.37-3.7 1.11-5.4zm2.28 10.16a11.67 11.67 0 002.4 3.75c1.03 1.07 2.27 1.92 3.63 2.5 1.43.61 2.97.91 4.53.9 3.05.04 5.97-1.18 8.08-3.38 1.04-1.08 1.86-2.35 2.41-3.75.59-1.5.89-3.11.87-4.72.01-1.59-.28-3.16-.87-4.63-1.1-2.78-3.26-5.01-6-6.19-1.41-.61-2.94-.92-4.48-.91-3.06-.02-6.01 1.2-8.16 3.38a11.54 11.54 0 00-2.4 3.72c-.59 1.47-.88 3.04-.87 4.63-.02 1.6.28 3.2.86 4.7zm11.41-12.75a6.56 6.56 0 014.27 1.15c.98.88 1.49 2.16 1.39 3.47.11 1.2-.34 2.38-1.22 3.2-.86.69-1.9 1.12-3 1.21l4.62 7.14h-2.7l-4.4-7h-2.73v7h-2.51v-16.17h6.28zm-1.11 7.18c.57 0 1.1 0 1.61-.06.46-.03.92-.13 1.35-.31.39-.17.71-.45.94-.8.26-.45.39-.98.36-1.5.02-.45-.09-.9-.32-1.29-.2-.31-.48-.57-.81-.74-.36-.18-.75-.3-1.15-.35a7.8 7.8 0 00-1.28-.1h-3.36v5.15h2.66z"/><g><path class="st1" d="M681.97 257.5a2.09 2.09 0 01-.63-1.54v-122.4c0-.6.21-1.11.63-1.54.42-.42.93-.63 1.54-.63h41.65c11.59 0 20.76 3.05 27.52 9.14 6.76 6.1 10.14 14.4 10.14 24.9v58.67c0 10.5-3.38 18.8-10.14 24.9-6.76 6.1-15.94 9.14-27.52 9.14h-41.65c-.6 0-1.11-.21-1.54-.64zm9.69-7.87h34.04c8.45 0 15.12-2.38 20.01-7.15 4.89-4.77 7.39-11.26 7.51-19.47v-56.5c0-8.21-2.44-14.7-7.33-19.47-4.89-4.77-11.62-7.15-20.19-7.15h-34.04c-.48 0-.72.24-.72.72V248.9c0 .49.24.73.72.73zM839.24 247.18c4.22-2.59 7.36-6.19 9.42-10.77.72-1.21 1.69-1.57 2.9-1.09l3.26 1.27c1.45.61 1.87 1.57 1.27 2.9-2.66 6.16-6.82 11.05-12.49 14.67-5.68 3.62-12.44 5.43-20.28 5.43-8.33 0-15.36-2.05-21.1-6.16-5.74-4.1-9.75-9.72-12.04-16.84-1.69-5.55-2.54-13.64-2.54-24.26 0-5.91.09-10.38.27-13.4.18-3.02.57-5.79 1.18-8.33 1.93-7.6 5.89-13.7 11.86-18.29 5.98-4.59 13.31-6.88 22-6.88 9.66 0 17.44 2.54 23.36 7.61 5.91 5.07 9.66 12.01 11.23 20.82.48 2.42.81 4.92 1 7.51.18 2.6.27 6.55.27 11.86 0 1.57-.72 2.35-2.17 2.35h-58.85c-.48 0-.72.24-.72.72 0 7.61.3 12.8.91 15.57 1.33 5.79 4.28 10.47 8.87 14.03 4.59 3.56 10.32 5.34 17.2 5.34 5.89-.1 10.96-1.46 15.19-4.06zm-42.19-40.11c0 .48.24.72.72.72h50.52c.48 0 .72-.24.72-.72 0-6.16-.3-10.74-.91-13.76-1.33-5.79-4.23-10.47-8.69-14.03-4.47-3.56-9.96-5.34-16.48-5.34s-11.95 1.72-16.3 5.16c-4.35 3.44-7.12 8-8.33 13.67-.59 2.29-1.01 7.06-1.25 14.3zM905.7 256.33L876 169.41c-.12-.24-.18-.54-.18-.91 0-1.09.6-1.63 1.81-1.63h6.16c1.21 0 1.99.61 2.35 1.81l24.63 74.79c.12.24.3.36.54.36.24 0 .42-.12.54-.36l24.63-74.79c.36-1.21 1.15-1.81 2.35-1.81l6.16.18c.72 0 1.24.21 1.54.63.3.42.33 1.06.09 1.9l-29.7 86.74c-.36 1.21-1.15 1.81-2.35 1.81h-6.52c-1.21.01-1.99-.59-2.35-1.8zM1015.43 247.18c4.22-2.59 7.36-6.19 9.42-10.77.72-1.21 1.69-1.57 2.9-1.09l3.26 1.27c1.45.61 1.87 1.57 1.27 2.9-2.66 6.16-6.82 11.05-12.49 14.67-5.68 3.62-12.44 5.43-20.28 5.43-8.33 0-15.36-2.05-21.1-6.16-5.74-4.1-9.75-9.72-12.04-16.84-1.69-5.55-2.54-13.64-2.54-24.26 0-5.91.09-10.38.27-13.4.18-3.02.57-5.79 1.18-8.33 1.93-7.6 5.88-13.7 11.86-18.29 5.98-4.59 13.31-6.88 22-6.88 9.66 0 17.44 2.54 23.36 7.61 5.91 5.07 9.66 12.01 11.23 20.82.48 2.42.82 4.92 1 7.51.18 2.6.27 6.55.27 11.86 0 1.57-.72 2.35-2.17 2.35h-58.85c-.48 0-.72.24-.72.72 0 7.61.3 12.8.91 15.57 1.33 5.79 4.28 10.47 8.87 14.03 4.59 3.56 10.32 5.34 17.2 5.34 5.89-.1 10.97-1.46 15.19-4.06zm-42.19-40.11c0 .48.24.72.72.72h50.52c.48 0 .72-.24.72-.72 0-6.16-.3-10.74-.91-13.76-1.33-5.79-4.23-10.47-8.69-14.03-4.47-3.56-9.96-5.34-16.48-5.34s-11.95 1.72-16.3 5.16-7.12 8-8.33 13.67c-.59 2.29-1.01 7.06-1.25 14.3zM1063.51 257.5a2.09 2.09 0 01-.63-1.54v-122.4c0-.6.21-1.11.63-1.54.42-.42.93-.63 1.54-.63h5.25c.6 0 1.12.21 1.54.63.42.42.63.94.63 1.54v122.41c0 .61-.21 1.12-.63 1.54-.42.42-.94.63-1.54.63h-5.25c-.61 0-1.12-.21-1.54-.64zM1115.29 252.89c-5.98-4.46-10.05-10.44-12.22-17.93-1.45-4.83-2.17-12.37-2.17-22.64 0-9.66.66-17.14 1.99-22.45 2.17-7.48 6.28-13.43 12.31-17.84 6.04-4.41 13.34-6.61 21.91-6.61 8.45 0 15.72 2.24 21.82 6.7 6.09 4.47 10.17 10.38 12.22 17.75 1.33 4.83 1.99 12.31 1.99 22.45 0 10.26-.66 17.81-1.99 22.64-2.05 7.49-6.13 13.46-12.22 17.93-6.1 4.47-13.37 6.7-21.82 6.7-8.57 0-15.84-2.24-21.82-6.7zm38.21-7.07c4.53-3.5 7.45-8.21 8.78-14.12.72-3.38 1.09-9.78 1.09-19.19 0-9.66-.36-16.05-1.09-19.19-1.33-5.91-4.26-10.62-8.78-14.12-4.53-3.5-10.05-5.25-16.57-5.25s-12.01 1.75-16.48 5.25c-4.47 3.5-7.37 8.21-8.69 14.12-.72 3.14-1.09 9.54-1.09 19.19 0 9.66.36 16.06 1.09 19.19 1.33 5.92 4.22 10.62 8.69 14.12 4.46 3.5 10.02 5.25 16.66 5.25 6.4.01 11.86-1.74 16.39-5.25zM1272.2 212.32c0 5.43-.12 9.9-.36 13.4s-.72 6.64-1.45 9.42c-1.93 7.49-5.77 13.43-11.5 17.84-5.74 4.41-12.77 6.61-21.1 6.61-5.31 0-10.05-1.06-14.21-3.17-4.17-2.11-7.58-5.16-10.23-9.14-.12-.24-.3-.3-.54-.18-.24.12-.36.3-.36.54v43.82c0 .6-.21 1.12-.63 1.54-.42.42-.94.63-1.54.63h-5.25c-.61 0-1.12-.21-1.54-.63-.42-.42-.63-.94-.63-1.54V169.05c0-.6.21-1.12.63-1.54.42-.42.93-.63 1.54-.63h5.25c.6 0 1.12.21 1.54.63.42.42.63.94.63 1.54v8.51c0 .36.09.57.27.63.18.06.39-.03.63-.27 2.65-3.98 6.07-7.06 10.23-9.24s8.9-3.26 14.21-3.26c8.21 0 15.15 2.17 20.82 6.52s9.54 10.2 11.59 17.56c1.33 5.08 2 12.68 2 22.82zm-10.23 14.13c.42-2.9.63-7.54.63-13.94 0-6.04-.18-10.47-.54-13.31-.36-2.83-.97-5.58-1.81-8.24-1.33-5.07-4.11-9.17-8.33-12.31-4.23-3.14-9.3-4.71-15.21-4.71-5.67 0-10.41 1.57-14.21 4.71-3.8 3.14-6.37 7.24-7.7 12.31-.85 2.29-1.42 4.86-1.72 7.7-.3 2.84-.45 7.4-.45 13.67 0 6.4.18 11.08.54 14.03.36 2.96.96 5.64 1.81 8.06 1.21 4.95 3.74 8.96 7.61 12.04 3.86 3.08 8.57 4.62 14.12 4.62 5.67 0 10.56-1.54 14.67-4.62 4.1-3.08 6.88-7.03 8.33-11.86 1.08-2.54 1.83-5.25 2.26-8.15zM1348.97 247.18c4.22-2.59 7.36-6.19 9.42-10.77.72-1.21 1.69-1.57 2.9-1.09l3.26 1.27c1.45.61 1.87 1.57 1.27 2.9-2.66 6.16-6.82 11.05-12.49 14.67-5.68 3.62-12.44 5.43-20.28 5.43-8.33 0-15.36-2.05-21.1-6.16-5.74-4.1-9.75-9.72-12.04-16.84-1.69-5.55-2.54-13.64-2.54-24.26 0-5.91.09-10.38.27-13.4.18-3.02.57-5.79 1.18-8.33 1.93-7.6 5.88-13.7 11.86-18.29 5.98-4.59 13.31-6.88 22-6.88 9.66 0 17.44 2.54 23.36 7.61 5.91 5.07 9.66 12.01 11.23 20.82.48 2.42.82 4.92 1 7.51.18 2.6.27 6.55.27 11.86 0 1.57-.72 2.35-2.17 2.35h-58.85c-.48 0-.72.24-.72.72 0 7.61.3 12.8.91 15.57 1.33 5.79 4.28 10.47 8.87 14.03 4.59 3.56 10.32 5.34 17.2 5.34 5.9-.1 10.97-1.46 15.19-4.06zm-42.19-40.11c0 .48.24.72.72.72h50.52c.48 0 .72-.24.72-.72 0-6.16-.3-10.74-.91-13.76-1.33-5.79-4.23-10.47-8.69-14.03-4.47-3.56-9.96-5.34-16.48-5.34s-11.95 1.72-16.3 5.16-7.12 8-8.33 13.67c-.59 2.29-1.01 7.06-1.25 14.3zM1441.14 168.14c1.09.48 1.45 1.39 1.09 2.72l-1.45 5.25c-.36 1.45-1.27 1.87-2.72 1.27-2.66-.84-5.55-1.21-8.69-1.09-6.76.12-12.34 2.69-16.75 7.7s-6.61 11.14-6.61 18.38v53.6c0 .61-.21 1.12-.63 1.54-.42.42-.94.63-1.54.63h-5.25c-.61 0-1.12-.21-1.54-.63a2.09 2.09 0 01-.63-1.54v-86.92c0-.6.21-1.12.63-1.54.42-.42.93-.63 1.54-.63h5.25c.6 0 1.12.21 1.54.63.42.42.63.94.63 1.54V181c0 .36.09.57.27.63.18.06.33-.09.45-.45 2.54-4.71 5.82-8.39 9.87-11.05 4.04-2.65 8.78-3.98 14.21-3.98 3.75 0 7.19.66 10.33 1.99zM1574.32 132.02c.42-.42.93-.63 1.54-.63h5.25c.6 0 1.11.21 1.54.63.42.42.63.94.63 1.54v122.41c0 .61-.21 1.12-.63 1.54-.42.42-.94.63-1.54.63h-5.25c-.61 0-1.12-.21-1.54-.63a2.09 2.09 0 01-.63-1.54v-56.5c0-.48-.24-.72-.72-.72h-62.29c-.48 0-.72.24-.72.72v56.5c0 .61-.21 1.12-.63 1.54-.42.42-.94.63-1.54.63h-5.25c-.61 0-1.12-.21-1.54-.63a2.09 2.09 0 01-.63-1.54V133.56c0-.6.21-1.11.63-1.54.42-.42.93-.63 1.54-.63h5.25c.6 0 1.11.21 1.54.63.42.42.63.94.63 1.54v55.95c0 .48.24.72.72.72h62.29c.48 0 .72-.24.72-.72v-55.95c0-.61.21-1.12.63-1.54zM1673.92 167.51c.42-.42.93-.63 1.54-.63h5.07c.6 0 1.12.21 1.54.63.42.42.63.94.63 1.54v86.92c0 .61-.21 1.12-.63 1.54-.42.42-.94.63-1.54.63h-5.07c-.61 0-1.12-.21-1.54-.63a2.09 2.09 0 01-.63-1.54v-8.51c0-.36-.12-.57-.36-.63-.24-.06-.42.09-.54.45-2.54 3.98-5.95 7-10.23 9.05-4.29 2.05-9.33 3.08-15.12 3.08-8.94 0-16.36-2.65-22.27-7.97-5.92-5.31-8.87-12.61-8.87-21.91v-60.48c0-.6.21-1.12.63-1.54.42-.42.93-.63 1.54-.63h5.07c.6 0 1.11.21 1.54.63.42.42.63.94.63 1.54V227c0 7.24 2.14 13.04 6.43 17.38 4.28 4.35 9.99 6.52 17.11 6.52 7.36 0 13.28-2.2 17.75-6.61 4.46-4.41 6.7-10.17 6.7-17.29v-57.95c-.02-.61.19-1.12.62-1.54zM1783.2 199.29c.24 3.5.36 7.97.36 13.4 0 10.14-.67 17.75-1.99 22.82-2.05 7.36-5.92 13.22-11.59 17.56-5.68 4.35-12.62 6.52-20.82 6.52-5.31 0-10.05-1.09-14.21-3.26s-7.58-5.25-10.23-9.24c-.24-.24-.45-.33-.63-.27s-.27.27-.27.63v8.51c0 .61-.21 1.12-.63 1.54-.42.42-.94.63-1.54.63h-5.25c-.61 0-1.12-.21-1.54-.63a2.09 2.09 0 01-.63-1.54v-122.4c0-.6.21-1.11.63-1.54.42-.42.93-.63 1.54-.63h5.25c.6 0 1.12.21 1.54.63.42.42.63.94.63 1.54v43.82c0 .24.12.42.36.54.24.12.42.06.54-.18 2.65-3.98 6.07-7.03 10.23-9.14 4.17-2.11 8.9-3.17 14.21-3.17 8.33 0 15.36 2.2 21.1 6.61 5.73 4.41 9.57 10.35 11.5 17.84.71 2.77 1.19 5.91 1.44 9.41zm-9.78 26.53c.36-2.83.54-7.27.54-13.31 0-6.4-.21-11.05-.63-13.94-.42-2.9-1.18-5.61-2.26-8.15-1.45-4.83-4.23-8.78-8.33-11.86-4.11-3.08-8.99-4.62-14.67-4.62-5.55 0-10.26 1.54-14.12 4.62-3.86 3.08-6.4 7.09-7.61 12.04-.85 2.42-1.45 5.1-1.81 8.06-.36 2.96-.54 7.64-.54 14.03 0 6.16.15 10.68.45 13.58.3 2.9.87 5.5 1.72 7.79 1.33 5.07 3.89 9.18 7.7 12.31 3.8 3.14 8.54 4.71 14.21 4.71 5.91 0 10.98-1.57 15.21-4.71 4.22-3.14 7-7.24 8.33-12.31.84-2.66 1.44-5.41 1.81-8.24z"/></g></svg>