<svg xmlns="http://www.w3.org/2000/svg" viewBox="0 0 367 512"><path d="M88.6 485.9v-41.5c0-.4.2-.6.6-.6h4.6c.4 0 .6.2.6.6v19.5c0 .1 0 .1.1.2.1 0 .1 0 .2-.1l17.4-19.8c.2-.2.4-.4.7-.4h5.3c.2 0 .4.1.5.2.1.1 0 .3-.1.5L104 461.6v.4l15.6 23.7c.1.2.1.3.1.4 0 .2-.2.4-.5.4H114c-.3 0-.5-.1-.7-.4l-13.2-19.9c0-.1-.1-.1-.2-.1s-.1 0-.2.1l-5.1 5.7c-.1.2-.1.3-.1.3v13.7c0 .4-.2.6-.6.6h-4.6c-.5.1-.7-.2-.7-.6zM149.4 472.8c0 .4-.2.6-.6.6h-19.5c-.2 0-.2.1-.2.2 0 1.4.1 2.4.4 3.2.4 1.6 1.4 2.9 2.7 3.8 1.4.9 3.1 1.4 5.2 1.4 3 0 5.3-1.2 7-3.7.2-.4.5-.5.8-.2l3.5 2.3c.3.2.3.5.2.8-1.1 1.8-2.8 3.3-4.8 4.3-2.1 1.1-4.5 1.6-7.1 1.6-3 0-5.5-.6-7.5-2-2-1.3-3.6-3.2-4.6-5.6-1-2.4-1.5-5.3-1.5-8.7 0-3 .2-5.2.7-6.8.7-2.8 2.2-5 4.4-6.6 2.2-1.6 4.9-2.4 8-2.4 4.1 0 7.2 1 9.2 3.1 2 2.1 3.3 5.1 3.7 9.1v5.6zM132 461.4c-1.1.9-1.9 2-2.3 3.5-.3.9-.5 2-.5 3.4 0 .2.1.2.2.2h14c.2 0 .2-.1.2-.2-.1-1.3-.2-2.3-.4-3-.4-1.6-1.2-2.9-2.4-3.8-1.2-1-2.7-1.4-4.5-1.4-1.8 0-3.2.4-4.3 1.3zM182.1 472.8c0 .4-.2.6-.6.6H162c-.2 0-.2.1-.2.2 0 1.4.1 2.4.4 3.2.4 1.6 1.4 2.9 2.7 3.8 1.4.9 3.1 1.4 5.2 1.4 3 0 5.3-1.2 7-3.7.2-.4.5-.5.8-.2l3.5 2.3c.3.2.3.5.2.8-1.1 1.8-2.8 3.3-4.8 4.3-2.1 1.1-4.5 1.6-7.1 1.6-3 0-5.5-.6-7.5-2-2-1.3-3.6-3.2-4.6-5.6-1-2.4-1.5-5.3-1.5-8.7 0-3 .2-5.2.7-6.8.7-2.8 2.2-5 4.4-6.6 2.2-1.6 4.9-2.4 8-2.4 4.1 0 7.2 1 9.2 3.1 2 2.1 3.3 5.1 3.7 9.1v5.6zm-17.4-11.4c-1.1.9-1.9 2-2.3 3.5-.3.9-.5 2-.5 3.4 0 .2.1.2.2.2h14c.2 0 .2-.1.2-.2-.1-1.3-.2-2.3-.4-3-.4-1.6-1.2-2.9-2.4-3.8-1.2-1-2.7-1.4-4.5-1.4-1.8 0-3.2.4-4.3 1.3zM211.3 458c2 1.9 2.9 4.5 2.9 7.8v20.1c0 .4-.2.6-.6.6H209c-.4 0-.6-.2-.6-.6v-19c0-2-.6-3.7-1.8-4.9-1.2-1.3-2.7-1.9-4.7-1.9-1.9 0-3.5.6-4.7 1.9-1.2 1.3-1.8 2.9-1.8 4.9v19c0 .4-.2.6-.6.6h-4.6c-.4 0-.6-.2-.6-.6v-29.8c0-.4.2-.6.6-.6h4.6c.4 0 .6.2.6.6v2.2c0 .1 0 .1.1.2.1 0 .1 0 .2-.1 1.7-2.2 4.3-3.4 7.7-3.4 3.3.1 5.9 1 7.9 3zM222.7 485.5c-.7-.7-1.1-1.7-1.1-2.8 0-1.1.4-2.1 1.1-2.8.7-.7 1.7-1.1 2.8-1.1s2.1.4 2.8 1.1c.7.7 1.1 1.7 1.1 2.8 0 1.1-.4 2.1-1.1 2.8-.7.7-1.7 1.1-2.8 1.1s-2.1-.4-2.8-1.1zM239 449.5c-.7-.7-1.1-1.7-1.1-2.8 0-1.1.4-2.1 1.1-2.8.7-.7 1.7-1.1 2.8-1.1 1.1 0 2.1.4 2.8 1.1.7.7 1.1 1.7 1.1 2.8 0 1.1-.4 2.1-1.1 2.8-.7.7-1.7 1.1-2.8 1.1-1.1 0-2.1-.3-2.8-1.1zm-.2 36.4v-29.8c0-.4.2-.6.6-.6h4.6c.4 0 .6.2.6.6v29.8c0 .4-.2.6-.6.6h-4.6c-.4 0-.6-.2-.6-.6zM258.7 484.8c-2.2-1.5-3.8-3.6-4.7-6.4-.7-2.2-1.1-4.7-1.1-7.4 0-2.9.3-5.3 1-7.3.9-2.7 2.5-4.8 4.7-6.3s4.9-2.3 8-2.3c2.9 0 5.5.8 7.7 2.3 2.2 1.5 3.7 3.6 4.7 6.3.7 2.1 1.1 4.5 1.1 7.3s-.4 5.3-1.1 7.5c-.9 2.7-2.4 4.8-4.6 6.4-2.2 1.5-4.8 2.3-7.7 2.3-3.2-.2-5.8-.9-8-2.4zm12.1-4.2c1.2-.9 2.1-2.2 2.6-3.9.4-1.5.7-3.5.7-5.7s-.2-4.2-.6-5.7c-.5-1.7-1.4-3-2.6-3.9-1.2-.9-2.7-1.4-4.5-1.4-1.7 0-3.1.5-4.3 1.4s-2.1 2.2-2.6 3.9c-.4 1.4-.7 3.3-.7 5.7s.2 4.3.7 5.7c.5 1.7 1.4 3 2.6 3.9 1.2.9 2.7 1.4 4.5 1.4 1.5 0 3-.5 4.2-1.4z"/><g><path d="M150.7 236.3l16.4 28.4-40.9 71.1h213.1l16.3 28.3H76.7l74-127.8z" fill="#f35757"/><path d="M150.8 122.6l73.7 127.9h-32.8l-41-70.9L43.9 364.1H11.4l139.4-241.5z" fill="#49c5b1"/><path d="M322.9 307.4H175.2l16.4-28.5h81.9L167.2 94.2 183.5 66l139.4 241.4z" fill="#00afd7"/></g></svg>