<svg xmlns="http://www.w3.org/2000/svg" viewBox="0 0 367 512"><path d="M299.7 292.4L269 272.2l-25.6 42.7-29.7-8.7-26.2 40 1.3 12.6 142.4-26.2-8.3-89-23.2 48.8zm-132.8-38.3l22.8-3.1c3.7 1.7 6.3 2.3 10.7 3.4 6.9 1.8 14.9 3.5 26.7-2.4 2.8-1.4 8.5-6.6 10.8-9.6l93.6-17 9.5 115.5-160.3 28.9-13.8-115.7zm173.9-41.7l-9.2 1.8-17.8-183.4L11.4 65.9l37.3 302.3 35.4-5.1c-2.8-4-7.2-8.9-14.7-15.2-10.4-8.7-6.7-23.4-.6-32.7 8.1-15.7 50.1-35.6 47.7-60.7-.9-9.1-2.3-21-10.8-29.1-.3 3.4.3 6.6.3 6.6s-3.5-4.4-5.2-10.5c-1.7-2.3-3.1-3.1-4.9-6.2-1.3 3.6-1.1 7.7-1.1 7.7s-2.8-6.7-3.3-12.4c-1.7 2.5-2.1 7.4-2.1 7.4s-3.7-10.6-2.9-16.3c-1.7-5-6.7-14.8-5.3-37.2 9.2 6.5 29.5 4.9 37.5-6.7 2.6-3.9 4.4-14.4-1.3-35.2-3.7-13.3-12.8-33.2-16.4-40.7l-.4.3c1.9 6.1 5.7 18.8 7.2 24.9 4.5 18.7 5.7 25.2 3.6 33.8-1.8 7.5-6.1 12.4-17 17.9-10.9 5.5-25.4-7.9-26.3-8.6-10.6-8.4-18.8-22.2-19.7-28.9-1-7.3 4.2-11.7 6.8-17.7-3.7 1.1-7.9 3-7.9 3s5-5.1 11.1-9.6c2.5-1.7 4-2.7 6.7-5-3.9-.1-7 0-7 0s6.4-3.5 13.1-6c-4.9-.2-9.6 0-9.6 0S76 79.6 87.4 74.8c7.8-3.2 15.5-2.3 19.7 3.9 5.6 8.1 11.5 12.5 24.1 15.3 7.7-3.4 10-5.2 19.7-7.8C159.3 77 166 75.8 166 75.8s-3.3 3-4.2 7.8c4.8-3.8 10.1-7 10.1-7s-2 2.5-4 6.5l.4.7c5.6-3.4 12.3-6 12.3-6s-1.9 2.4-4.1 5.5c4.2 0 12.9.2 16.2.6 19.7.4 23.8-21.1 31.4-23.8 9.5-3.4 13.7-5.4 29.9 10.4 13.9 13.6 24.7 38 19.3 43.5-4.5 4.5-13.4-1.8-23.3-14.1-5.2-6.5-9.2-14.2-11-24-1.6-8.3-7.6-13-7.6-13s3.5 7.8 3.5 14.7c0 3.8.5 17.9 6.5 25.8-.6 1.2-.9 5.7-1.5 6.6-7-8.5-22.2-14.6-24.6-16.4 8.3 6.8 27.5 22.5 34.9 37.6 7 14.2 2.9 27.3 6.4 30.7 1 1 15 18.4 17.7 27.1 4.7 15.3.3 31.3-5.9 41.2l-17.1 2.7c-2.5-.7-4.2-1-6.4-2.3 1.2-2.2 3.7-7.7 3.7-8.8l-1-1.7c-5.3 7.6-14.3 14.9-21.7 19.1-9.7 5.5-20.9 4.7-28.2 2.4-20.7-6.4-40.3-20.4-45-24 0 0-.1 2.9.7 3.6 5.2 5.9 17.2 16.5 28.7 24l-24.6 2.7 11.6 90.7c-5.2.7-6 1.1-11.6 1.9-5-17.6-14.5-29.1-24.9-35.8-9.2-5.9-21.9-7.2-34-4.8l-.8.9c8.4-.9 18.4.3 28.6 6.8 10 6.3 18.1 22.7 21.1 32.6 3.8 12.6 6.4 26.1-3.8 40.4-7.3 10.2-28.6 15.8-45.8 3.6 4.6 7.4 10.8 13.4 19.2 14.6 12.4 1.7 24.2-.5 32.3-8.8 6.9-7.1 10.6-22 9.6-37.7l11-1.6 4 28.2L355.6 357l-14.8-144.6zM230.3 136c-.5 1.2-1.3 1.9-.1 5.7l.1.2.2.5.5 1.1c2.2 4.4 4.5 8.6 8.5 10.7 1-.2 2.1-.3 3.2-.3 3.7-.2 6.1.4 7.5 1.2.1-.7.2-1.8.1-3.4-.3-5.6 1.1-15.1-9.6-20.1-4-1.9-9.7-1.3-11.6 1 .3 0 .7.1.9.2 2.8 1 .8 2 .3 3.2m30.1 52c-1.4-.8-8-.5-12.6.1-8.8 1-18.3 4.1-20.4 5.7-3.8 2.9-2.1 8 .7 10.1 7.8 5.9 14.7 9.8 22 8.8 4.5-.6 8.4-7.6 11.2-14 1.9-4.4 1.9-9.1-.9-10.7m-77.9-45.1c2.5-2.4-12.4-5.5-23.9 2.4-8.5 5.8-8.8 18.2-.6 25.3.8.7 1.5 1.2 2.1 1.6 2.4-1.1 5.1-2.3 8.2-3.3 5.3-1.7 9.6-2.6 13.2-3.1 1.7-1.9 3.7-5.3 3.2-11.4-.7-8.3-7-7-2.2-11.5" fill="#632ca6"/><path d="M74.9 485.9v-41.5c0-.4.2-.6.6-.6h14.8c4.2 0 7.6 1.1 10.1 3.3 2.5 2.2 3.8 5.2 3.8 8.9v18.3c0 3.7-1.3 6.7-3.8 8.9s-5.9 3.3-10.1 3.3H75.5c-.4.1-.6-.2-.6-.6zm6.1-4.4h9.5c2.4 0 4.2-.7 5.6-2.2 1.4-1.4 2.1-3.4 2.2-5.8v-16.6c0-2.4-.7-4.4-2.1-5.8-1.4-1.4-3.3-2.2-5.7-2.2H81c-.2 0-.2.1-.2.2v32.1c-.1.2 0 .3.2.3zM129.4 456.3c1.9.9 3.3 2.1 4.3 3.7s1.5 3.3 1.5 5.3v20.6c0 .4-.2.6-.6.6H130c-.4 0-.6-.2-.6-.6v-2.2c0-.2-.1-.2-.3-.1-1.1 1.1-2.3 1.9-3.9 2.5-1.5.6-3.2.9-5.1.9-3 0-5.5-.8-7.5-2.3-2-1.5-3-3.8-3-6.9 0-3.2 1.1-5.7 3.3-7.5 2.2-1.8 5.3-2.7 9.3-2.7h6.8c.2 0 .2-.1.2-.2v-1.6c0-1.8-.5-3.2-1.6-4.2-1-1-2.6-1.5-4.7-1.5-1.7 0-3.1.3-4.2 1s-1.7 1.6-2 2.7c-.1.4-.4.6-.7.5l-4.9-.7c-.4-.1-.6-.2-.5-.5.3-2.4 1.6-4.4 3.8-5.9 2.2-1.5 5-2.3 8.4-2.3 2.6.1 4.7.6 6.6 1.4zm-2.5 24.1c1.6-1.1 2.4-2.6 2.4-4.3v-3.6c0-.2-.1-.2-.2-.2h-5.7c-2.4 0-4.3.5-5.7 1.4-1.4.9-2.1 2.2-2.1 3.9 0 1.5.5 2.6 1.6 3.4 1.1.8 2.5 1.2 4.2 1.2 2.1-.1 3.9-.7 5.5-1.8zM157.4 460.3h-6.6c-.2 0-.2.1-.2.2v16.2c0 1.7.4 2.9 1.2 3.7.8.8 2 1.1 3.6 1.1h1.8c.4 0 .6.2.6.6v3.8c0 .4-.2.6-.6.6-1.3.1-2.2.1-2.8.1-3.1 0-5.4-.6-7-1.7-1.6-1.1-2.3-3.2-2.3-6.2v-18.2c0-.2-.1-.2-.2-.2H141c-.4 0-.6-.2-.6-.6v-3.6c0-.4.2-.6.6-.6h3.7c.2 0 .2-.1.2-.2v-7.2c0-.4.2-.6.6-.6h4.4c.4 0 .6.2.6.6v7.2c0 .2.1.2.2.2h6.6c.4 0 .6.2.6.6v3.6c.1.4-.1.6-.5.6zM183 456.3c1.9.9 3.3 2.1 4.3 3.7s1.5 3.3 1.5 5.3v20.6c0 .4-.2.6-.6.6h-4.6c-.4 0-.6-.2-.6-.6v-2.2c0-.2-.1-.2-.3-.1-1.1 1.1-2.3 1.9-3.9 2.5-1.5.6-3.2.9-5.1.9-3 0-5.5-.8-7.5-2.3-2-1.5-3-3.8-3-6.9 0-3.2 1.1-5.7 3.3-7.5 2.2-1.8 5.3-2.7 9.3-2.7h6.8c.2 0 .2-.1.2-.2v-1.6c0-1.8-.5-3.2-1.6-4.2-1-1-2.6-1.5-4.7-1.5-1.7 0-3.1.3-4.2 1s-1.7 1.6-2 2.7c-.1.4-.4.6-.7.5l-4.9-.7c-.4-.1-.6-.2-.5-.5.3-2.4 1.6-4.4 3.8-5.9 2.2-1.5 5-2.3 8.4-2.3 2.6.1 4.8.6 6.6 1.4zm-2.5 24.1c1.6-1.1 2.4-2.6 2.4-4.3v-3.6c0-.2-.1-.2-.2-.2H177c-2.4 0-4.3.5-5.7 1.4-1.4.9-2.1 2.2-2.1 3.9 0 1.5.5 2.6 1.6 3.4 1.1.8 2.5 1.2 4.2 1.2 2.1-.1 4-.7 5.5-1.8zM197.4 485.9v-41.5c0-.4.2-.6.6-.6h14.8c4.2 0 7.6 1.1 10.1 3.3 2.5 2.2 3.8 5.2 3.8 8.9v18.3c0 3.7-1.3 6.7-3.8 8.9s-5.9 3.3-10.1 3.3H198c-.4.1-.6-.2-.6-.6zm6.1-4.4h9.5c2.4 0 4.2-.7 5.6-2.2 1.4-1.4 2.1-3.4 2.2-5.8v-16.6c0-2.4-.7-4.4-2.1-5.8-1.4-1.4-3.3-2.2-5.7-2.2h-9.5c-.2 0-.2.1-.2.2v32.1c0 .2.1.3.2.3zM239.2 484.8c-2.2-1.5-3.8-3.6-4.7-6.4-.7-2.2-1.1-4.7-1.1-7.4 0-2.9.3-5.3 1-7.3.9-2.7 2.5-4.8 4.7-6.3s4.9-2.3 8-2.3c2.9 0 5.5.8 7.7 2.3 2.2 1.5 3.7 3.6 4.7 6.3.7 2.1 1.1 4.5 1.1 7.3s-.4 5.3-1.1 7.5c-.9 2.7-2.4 4.8-4.6 6.4-2.2 1.5-4.8 2.3-7.7 2.3-3.1-.2-5.7-.9-8-2.4zm12.2-4.2c1.2-.9 2.1-2.2 2.6-3.9.4-1.5.7-3.5.7-5.7s-.2-4.2-.6-5.7c-.5-1.7-1.4-3-2.6-3.9-1.2-.9-2.7-1.4-4.5-1.4-1.7 0-3.1.5-4.3 1.4s-2.1 2.2-2.6 3.9c-.4 1.4-.7 3.3-.7 5.7s.2 4.3.7 5.7c.5 1.7 1.4 3 2.6 3.9 1.2.9 2.7 1.4 4.5 1.4 1.5 0 2.9-.5 4.2-1.4zM288 455.5h4.6c.4 0 .6.2.6.6V485c0 4.9-1.4 8.4-4.2 10.6-2.8 2.1-6.5 3.2-11.2 3.2-.7 0-1.7 0-3-.1-.4 0-.6-.3-.6-.7l.2-4.2c0-.2.1-.3.2-.4s.3-.2.5-.1c.6 0 1.4.1 2.5.1 3.5 0 6-.6 7.5-1.9 1.5-1.3 2.3-3.4 2.3-6.5v-1.1c0-.1 0-.1-.1-.2-.1 0-.1 0-.2.1-1.7 2-4.2 3-7.5 3-2.6 0-5-.7-7.2-2.1-2.1-1.4-3.6-3.4-4.4-6.1-.5-1.8-.8-4.3-.8-7.4 0-3.4.3-6 .9-7.8.8-2.4 2.1-4.4 4.1-5.9 2-1.5 4.3-2.2 7-2.2 3.3 0 6 1 7.9 3 .1.1.2.1.2.1.1 0 .1-.1.1-.2v-1.9c0-.6.2-.8.6-.8zm-.7 19c.1-.7.1-2 .1-3.7s0-2.9-.1-3.6c-.1-.7-.2-1.4-.3-2-.3-1.5-1.1-2.7-2.2-3.7s-2.6-1.4-4.3-1.4-3.1.5-4.3 1.4c-1.1 1-2 2.2-2.4 3.7-.4 1.2-.7 3.1-.7 5.7 0 2.8.2 4.7.6 5.7.4 1.5 1.2 2.7 2.4 3.7s2.7 1.4 4.4 1.4c1.8 0 3.2-.5 4.4-1.4 1.1-1 1.8-2.2 2.2-3.7 0-.6.1-1.3.2-2.1z"/></svg>