<svg version="1.1" id="Layer_1" xmlns="http://www.w3.org/2000/svg" xmlns:xlink="http://www.w3.org/1999/xlink" x="0" y="0" viewBox="0 0 367 512" xml:space="preserve"><style>.st0{fill:#fcbf91}.st1{fill:#9d5125}</style><symbol id="A" viewBox="-26.6 -32 53.2 64"><path class="st0" d="M0 15.9L26.5 3.7 0 2.6l-26.5 1.1L0 15.9z"/><path class="st1" d="M-26.6-18.8V0H5.3v-29.3L.1-32l-26.7 13.2z"/><path class="st0" d="M.1 32l26.5-18.8L0 9.3l-26.6 3.9L.1 32z"/><path class="st1" d="M.1-18.7V0h14v-20L10-21.6.1-18.7z"/><path class="st1" d="M10-12.6V0h10.9v-13l-3.1-.9-7.8 1.3z"/><path class="st1" d="M17.7-14.9V0h8.8l.1-15-2.7-1.1-6.2 1.2z"/><path d="M5.3 0v-29.3L.1-32V0h5.2zm8.8 0v-20L10-21.6V0h4.1zm6.7 0v-13l-3.1-.9V0h3.1zm3.1 0v-16l2.7 1.1V0h-2.7zm2.6 3.7v5.6L0 15.9V6.4l26.5-2.7zm.1 15v-5.5L0 22.6V32l26.6-13.3z" fill="#f58532"/><path class="st1" d="M-26.6 18.7v-5.6L0 22.5V32l-26.6-13.3zm0-9.4V3.7L0 6.4V16l-26.6-6.7z"/></symbol><path d="M48.7 486.1l-2.2-7.1c0-.1-.1-.2-.2-.2H29.1c-.1 0-.2.1-.2.2l-2.2 7.1c-.1.3-.4.5-.7.5h-5c-.4 0-.6-.2-.5-.7l13.4-41.5c.1-.3.4-.5.7-.5h6.1c.4 0 .6.2.7.5l13.5 41.5.1.2c0 .3-.2.4-.5.4h-5c-.4.1-.7-.1-.8-.4zM30.5 474c.1.1.1.1.2.1h14c.1 0 .2 0 .2-.1.1-.1.1-.1 0-.2l-7.1-22.6c0-.1-.1-.1-.2-.1s-.1 0-.2.1l-7.1 22.6c.1.1.1.2.2.2zM67.7 486.1l-11.5-41.5-.1-.2c0-.3.2-.5.6-.5h4.9c.4 0 .6.2.7.5l8 30.4c0 .1.1.1.2.1s.1 0 .2-.1l7.6-30.4c.1-.4.3-.5.7-.5h4.8c.4 0 .6.2.7.5l8 30.4c0 .1.1.1.1.1s.1 0 .1-.1l8.1-30.4c.1-.4.3-.5.7-.5h4.6c.2 0 .4.1.5.2s.1.3.1.5l-11 41.5c-.1.4-.3.5-.7.5h-4.7c-.4 0-.6-.2-.7-.5l-8-31.5c0-.1-.1-.2-.1-.2s-.1.1-.1.2L73.5 486c0 .4-.3.5-.7.5h-4.5c-.3.1-.5-.1-.6-.4zM117.4 485.6c-2.3-1-4.1-2.4-5.3-4.1-1.2-1.8-1.9-3.9-1.9-6.3v-1.8c0-.4.2-.6.6-.6h4.5c.4 0 .6.2.6.6v1.5c0 2.1.9 3.8 2.7 5.1 1.8 1.3 4.2 2 7.4 2 2.8 0 4.9-.6 6.3-1.8 1.4-1.2 2.1-2.7 2.1-4.6 0-1.3-.4-2.3-1.1-3.2s-1.8-1.7-3.2-2.5-3.4-1.7-6.1-2.7c-3-1.1-5.3-2.2-7-3.1s-3.2-2.2-4.3-3.7c-1.1-1.5-1.7-3.4-1.7-5.8 0-3.5 1.3-6.2 3.8-8.2s5.9-3 10.2-3c3 0 5.7.5 7.9 1.5 2.3 1 4 2.4 5.3 4.3 1.2 1.8 1.9 3.9 1.9 6.3v1.2c0 .4-.2.6-.6.6h-4.6c-.4 0-.6-.2-.6-.6v-.9c0-2.1-.8-3.9-2.5-5.3s-4-2.1-7-2.1c-2.5 0-4.5.5-5.9 1.6-1.4 1-2.1 2.5-2.1 4.5 0 1.3.3 2.4 1 3.3s1.7 1.6 3.1 2.3c1.4.7 3.4 1.5 6.3 2.6s5.2 2.2 7 3.1c1.8 1 3.3 2.2 4.5 3.8 1.2 1.6 1.8 3.5 1.8 5.8 0 3.6-1.3 6.4-3.9 8.5-2.6 2.1-6.2 3.1-10.8 3.1-3.4 0-6.1-.4-8.4-1.4zM160.5 485.9v-41.5c0-.4.2-.6.6-.6h4.6c.4 0 .6.2.6.6v19.5c0 .1 0 .1.1.2.1 0 .1 0 .2-.1l17.4-19.8c.2-.2.4-.4.7-.4h5.3c.2 0 .4.1.5.2s0 .3-.1.5L176 461.7v.4l15.6 23.7c.1.2.1.3.1.4 0 .2-.2.4-.5.4h-5.3c-.3 0-.5-.1-.7-.4L172 466.3c0-.1-.1-.1-.2-.1s-.1 0-.2.1l-5.1 5.7c-.1.2-.1.3-.1.3V486c0 .4-.2.6-.6.6h-4.6c-.5 0-.7-.3-.7-.7zM198 449.5c-.7-.7-1.1-1.7-1.1-2.8 0-1.1.4-2.1 1.1-2.8.7-.7 1.7-1.1 2.8-1.1s2.1.4 2.8 1.1 1.1 1.7 1.1 2.8c0 1.1-.4 2.1-1.1 2.8-.7.7-1.7 1.1-2.8 1.1s-2-.3-2.8-1.1zm-.2 36.4v-29.8c0-.4.2-.6.6-.6h4.6c.4 0 .6.2.6.6v29.8c0 .4-.2.6-.6.6h-4.6c-.4 0-.6-.2-.6-.6zM234.6 458c2 1.9 2.9 4.5 2.9 7.8v20.1c0 .4-.2.6-.6.6h-4.6c-.4 0-.6-.2-.6-.6v-19c0-2-.6-3.7-1.8-4.9-1.2-1.3-2.7-1.9-4.7-1.9-1.9 0-3.5.6-4.7 1.9s-1.8 2.9-1.8 4.9v19c0 .4-.2.6-.6.6h-4.6c-.4 0-.6-.2-.6-.6v-29.8c0-.4.2-.6.6-.6h4.6c.4 0 .6.2.6.6v2.2c0 .1 0 .1.1.2.1 0 .1 0 .2-.1 1.7-2.2 4.3-3.4 7.7-3.4 3.4.1 6 1 7.9 3zM270.9 472.8c0 .4-.2.6-.6.6h-19.5c-.2 0-.2.1-.2.2 0 1.4.1 2.4.4 3.2.4 1.6 1.4 2.9 2.7 3.8 1.4.9 3.1 1.4 5.2 1.4 3 0 5.3-1.2 7-3.7.2-.4.5-.5.8-.2l3.5 2.3c.3.2.3.5.2.8-1.1 1.8-2.8 3.3-4.8 4.3-2.1 1.1-4.5 1.6-7.1 1.6-3 0-5.5-.6-7.5-2-2-1.3-3.6-3.2-4.6-5.6s-1.5-5.3-1.5-8.7c0-3 .2-5.2.7-6.8.7-2.8 2.2-5 4.4-6.6s4.9-2.4 8-2.4c4.1 0 7.2 1 9.2 3.1s3.3 5.1 3.7 9.1v5.6zm-17.5-11.4c-1.1.9-1.9 2-2.3 3.5-.3.9-.5 2-.5 3.4 0 .2.1.2.2.2h14c.2 0 .2-.1.2-.2-.1-1.3-.2-2.3-.4-3-.4-1.6-1.2-2.9-2.4-3.8-1.2-1-2.7-1.4-4.5-1.4-1.7 0-3.1.4-4.3 1.3zM282.3 485.8c-1.9-.7-3.3-1.7-4.3-3s-1.5-2.7-1.5-4.2v-.7c0-.4.2-.6.6-.6h4.4c.4 0 .6.2.6.6v.3c0 1.1.6 2.1 1.9 3 1.2.9 2.8 1.3 4.7 1.3 1.8 0 3.3-.4 4.5-1.2 1.1-.8 1.7-1.8 1.7-3s-.5-2.1-1.6-2.7-2.8-1.2-5.1-1.9-4.3-1.3-5.8-2c-1.6-.7-2.9-1.6-4-2.9s-1.6-2.8-1.6-4.8c0-2.7 1.1-4.9 3.2-6.5s5-2.4 8.5-2.4c2.4 0 4.4.4 6.3 1.1 1.8.8 3.2 1.8 4.2 3.1s1.5 2.8 1.5 4.5v.2c0 .4-.2.6-.6.6h-4.3c-.4 0-.6-.2-.6-.6 0-1.2-.6-2.2-1.7-3s-2.7-1.2-4.7-1.2c-1.8 0-3.2.3-4.4 1-1.1.7-1.7 1.6-1.7 2.8 0 1.2.5 2.1 1.6 2.7s2.8 1.3 5.2 2c2.4.7 4.3 1.3 5.9 1.9s2.9 1.6 4 2.8c1.1 1.2 1.6 2.9 1.6 4.8 0 2.8-1.1 5-3.3 6.6-2.2 1.6-5.1 2.4-8.7 2.4-2.5.1-4.7-.2-6.5-1zM308.2 449.5c-.7-.7-1.1-1.7-1.1-2.8 0-1.1.4-2.1 1.1-2.8.7-.7 1.7-1.1 2.8-1.1s2.1.4 2.8 1.1c.7.7 1.1 1.7 1.1 2.8 0 1.1-.4 2.1-1.1 2.8-.7.7-1.7 1.1-2.8 1.1s-2.1-.3-2.8-1.1zm-.2 36.4v-29.8c0-.4.2-.6.6-.6h4.6c.4 0 .6.2.6.6v29.8c0 .4-.2.6-.6.6h-4.6c-.4 0-.6-.2-.6-.6zM327.5 485.8c-1.9-.7-3.3-1.7-4.3-3s-1.5-2.7-1.5-4.2v-.7c0-.4.2-.6.6-.6h4.4c.4 0 .6.2.6.6v.3c0 1.1.6 2.1 1.9 3 1.2.9 2.8 1.3 4.7 1.3 1.8 0 3.3-.4 4.5-1.2 1.1-.8 1.7-1.8 1.7-3s-.5-2.1-1.6-2.7-2.8-1.2-5.1-1.9-4.3-1.3-5.8-2c-1.6-.7-2.9-1.6-4-2.9S322 466 322 464c0-2.7 1.1-4.9 3.2-6.5s5-2.4 8.5-2.4c2.4 0 4.4.4 6.3 1.1 1.8.8 3.2 1.8 4.2 3.1s1.5 2.8 1.5 4.5v.2c0 .4-.2.6-.6.6h-4.3c-.4 0-.6-.2-.6-.6 0-1.2-.6-2.2-1.7-3s-2.7-1.2-4.7-1.2c-1.8 0-3.2.3-4.4 1-1.1.7-1.7 1.6-1.7 2.8 0 1.2.5 2.1 1.6 2.7s2.8 1.3 5.2 2c2.4.7 4.3 1.3 5.9 1.9s2.9 1.6 4 2.8c1.1 1.2 1.6 2.9 1.6 4.8 0 2.8-1.1 5-3.3 6.6-2.2 1.6-5.1 2.4-8.7 2.4-2.5.1-4.6-.2-6.5-1z"/><use xlink:href="#A" width="53.2" height="64" x="-26.6" y="-32" transform="translate(183.6 225.95) scale(5.5809)" overflow="visible"/></svg>