<svg xmlns="http://www.w3.org/2000/svg" viewBox="0 0 367 512"><path d="M61.7 93.2c33.5-33.5 74.1-50.3 121.8-50.3s88.2 16.8 121.8 50.3 50.3 74.1 50.3 121.8-16.8 88.2-50.3 121.8-74.1 50.3-121.8 50.3-88.2-16.8-121.8-50.3S11.4 262.6 11.4 215s16.8-88.2 50.3-121.8zM33.6 215c0 15.3 2.3 30.1 6.9 44.4H103c-1.9-14.8-2.8-29.6-2.8-44.4 0-14.3.9-29.1 2.8-44.4H40.6c-4.7 14.3-7 29.1-7 44.4zM136.3 72.8C97 85.8 68.1 111 49.6 148.4h56.9c6.5-31 16.4-56.2 29.8-75.6zM49.6 281.6c18.5 37.5 47.4 62.7 86.7 75.6-13.4-19-23.4-44.2-29.8-75.6H49.6zm195-66.6c0-14.8-.9-29.6-2.8-44.4H125.2c-1.9 14.8-2.8 29.6-2.8 44.4s.9 29.6 2.8 44.4h116.6c1.8-14.8 2.8-29.6 2.8-44.4zM183.5 65.1c-9.7 0-19.8 7.5-30.2 22.5s-18.4 35.3-23.9 60.7h108.2c-2.8-13-6.4-24.7-10.8-35.4-4.4-10.6-9-19.4-13.9-26.4-4.9-6.9-9.8-12.3-14.9-16s-9.9-5.4-14.5-5.4zm0 299.8c9.7 0 19.8-7.5 30.2-22.5s18.4-35.3 23.9-60.7H129.4c3.7 17.1 8.7 32 14.9 44.8 6.2 12.7 12.7 22.3 19.4 28.8 6.7 6.3 13.3 9.6 19.8 9.6zm133.9-216.5c-18.5-37.5-47.4-62.7-86.7-75.6 13.4 19 23.4 44.2 29.8 75.6h56.9zm-86.7 208.8c39.3-13 68.2-38.2 86.7-75.6h-56.9c-6.5 31-16.4 56.2-29.8 75.6zm33.3-97.8h62.4c4.6-14.3 6.9-29.1 6.9-44.4s-2.3-30.1-6.9-44.4H264c1.9 14.8 2.8 29.6 2.8 44.4 0 14.3-1 29.1-2.8 44.4z" fill="#194a7d"/><path d="M89 486.1l-8.5-18.2c0-.1-.1-.2-.2-.2h-8.8c-.2 0-.2.1-.2.2v18c0 .4-.2.6-.6.6h-4.6c-.4 0-.6-.2-.6-.6v-41.5c0-.4.2-.6.6-.6h16.4c2.4 0 4.6.5 6.4 1.5 1.9 1 3.3 2.4 4.3 4.3 1 1.8 1.5 3.9 1.5 6.3 0 2.8-.7 5.3-2.2 7.2-1.5 2-3.5 3.3-6.2 4-.2.1-.2.2-.1.3l8.8 18.3c0 .1.1.2.1.3 0 .3-.2.4-.5.4h-4.8c-.5.2-.7 0-.8-.3zm-17.8-36.9v13.7c0 .2.1.2.2.2h10.2c2.2 0 3.9-.6 5.2-1.9 1.3-1.3 2-3 2-5.1 0-2.2-.7-3.9-2-5.2-1.3-1.3-3-2-5.2-2H71.4c-.1 0-.2.1-.2.3zM130.5 448.9h-21.7c-.2 0-.2.1-.2.2v13.1c0 .2.1.2.2.2h14.9c.4 0 .6.2.6.6v3.8c0 .4-.2.6-.6.6h-14.9c-.2 0-.2.1-.2.2V481c0 .2.1.2.2.2h21.7c.4 0 .6.2.6.6v3.8c0 .4-.2.6-.6.6h-27.1c-.4 0-.6-.2-.6-.6v-41.5c0-.4.2-.6.6-.6h27.1c.4 0 .6.2.6.6v3.8c0 .8-.2 1-.6 1zM144.2 485.6c-2.3-1-4.1-2.4-5.3-4.1-1.2-1.8-1.9-3.9-1.9-6.3v-1.8c0-.4.2-.6.6-.6h4.5c.4 0 .6.2.6.6v1.5c0 2.1.9 3.8 2.7 5.1 1.8 1.3 4.2 2 7.4 2 2.8 0 4.9-.6 6.3-1.8 1.4-1.2 2.1-2.7 2.1-4.6 0-1.3-.4-2.3-1.1-3.2s-1.8-1.7-3.2-2.5c-1.4-.8-3.4-1.7-6.1-2.7-3-1.1-5.3-2.2-7-3.1-1.7-.9-3.2-2.2-4.3-3.7-1.1-1.5-1.7-3.4-1.7-5.8 0-3.5 1.3-6.2 3.8-8.2 2.5-2 5.9-3 10.2-3 3 0 5.7.5 7.9 1.5 2.3 1 4 2.4 5.3 4.3 1.2 1.8 1.9 3.9 1.9 6.3v1.2c0 .4-.2.6-.6.6h-4.6c-.4 0-.6-.2-.6-.6v-.9c0-2.1-.8-3.9-2.5-5.3s-4-2.1-7-2.1c-2.5 0-4.5.5-5.9 1.6-1.4 1-2.1 2.5-2.1 4.5 0 1.3.3 2.4 1 3.3.7.9 1.7 1.6 3.1 2.3 1.4.7 3.4 1.5 6.3 2.6s5.2 2.2 7 3.1c1.8 1 3.3 2.2 4.5 3.8 1.2 1.6 1.8 3.5 1.8 5.8 0 3.6-1.3 6.4-3.9 8.5-2.6 2.1-6.2 3.1-10.8 3.1-3.4 0-6.1-.4-8.4-1.4zM201.8 444.5v3.9c0 .4-.2.6-.6.6h-11.7c-.2 0-.2.1-.2.2v36.7c0 .4-.2.6-.6.6H184c-.4 0-.6-.2-.6-.6v-36.7c0-.2-.1-.2-.2-.2H172c-.4 0-.6-.2-.6-.6v-3.9c0-.4.2-.6.6-.6h29.2c.4 0 .6.2.6.6zM246.4 486.1l-2.2-7.1c0-.1-.1-.2-.2-.2h-17.1c-.1 0-.2.1-.2.2l-2.2 7.1c-.1.3-.4.5-.7.5h-4.9c-.4 0-.6-.2-.5-.7l13.4-41.5c.1-.3.4-.5.7-.5h6.1c.4 0 .6.2.7.5l13.5 41.5.1.2c0 .3-.2.4-.5.4h-5c-.6.1-.9-.1-1-.4zM228.2 474c.1.1.1.1.2.1h14c.1 0 .2 0 .2-.1.1-.1.1-.1 0-.2l-7.1-22.6c0-.1-.1-.1-.2-.1s-.1 0-.2.1l-7.1 22.6c.1.1.1.2.2.2zM282.9 445.3c1.9 1 3.4 2.5 4.4 4.4 1 1.9 1.6 4 1.6 6.5 0 2.4-.5 4.6-1.6 6.4s-2.6 3.3-4.5 4.3-4.2 1.5-6.7 1.5h-10.7c-.2 0-.2.1-.2.2v17.3c0 .4-.2.6-.6.6H260c-.4 0-.6-.2-.6-.6v-41.5c0-.4.2-.6.6-.6h16.5c2.4 0 4.5.5 6.4 1.5zm-1.9 16.3c1.4-1.3 2-3.1 2-5.3 0-2.2-.7-4-2-5.4s-3.2-2-5.4-2h-10.2c-.2 0-.2.1-.2.2v14.3c0 .2.1.2.2.2h10.2c2.2 0 4-.7 5.4-2zM295.8 485.9v-41.5c0-.4.2-.6.6-.6h4.6c.4 0 .6.2.6.6v41.5c0 .4-.2.6-.6.6h-4.6c-.4.1-.6-.2-.6-.6z"/></svg>