<svg version="1.1" id="Layer_1" xmlns="http://www.w3.org/2000/svg" x="0" y="0" viewBox="0 0 367 512" xml:space="preserve"><style>.st1{display:inline}</style><path d="M67 484.6l-11.4-45h6.1l5.3 22.8c1.3 5.6 2.5 11.2 3.3 15.6h.1c.7-4.5 2.1-9.8 3.7-15.6l6-22.7h6.1l5.5 22.9c1.3 5.3 2.5 10.7 3.1 15.4h.1c.9-4.9 2.2-10 3.6-15.6l5.9-22.7h5.9l-12.8 45h-6.1L86 461.1c-1.4-5.7-2.3-10.2-2.9-14.7H83c-.8 4.5-1.8 8.9-3.5 14.7l-6.4 23.5H67zM121.5 443.1c.1 2-1.4 3.6-3.7 3.6-2.1 0-3.5-1.6-3.5-3.6 0-2.1 1.5-3.7 3.7-3.7 2.1.1 3.5 1.7 3.5 3.7zm-6.6 41.5v-32.3h5.9v32.3h-5.9zM130.5 461c0-3.3-.1-6.1-.3-8.8h5.2l.3 5.3h.1c1.6-3.1 5.3-6.1 10.7-6.1 4.5 0 11.4 2.7 11.4 13.8v19.3H152v-18.6c0-5.2-1.9-9.6-7.5-9.6-3.9 0-6.9 2.7-7.9 6-.3.7-.4 1.7-.4 2.7v19.4h-5.9V461zM195.6 437.1v39.1c0 2.9.1 6.1.3 8.4h-5.3l-.3-5.6h-.1c-1.8 3.6-5.7 6.3-11 6.3-7.8 0-13.8-6.6-13.8-16.4-.1-10.8 6.6-17.4 14.5-17.4 4.9 0 8.3 2.3 9.8 4.9h.1v-19.3h5.8zm-5.9 28.3c0-.7-.1-1.7-.3-2.5-.9-3.7-4.1-6.8-8.5-6.8-6.1 0-9.7 5.3-9.7 12.5 0 6.5 3.2 12 9.6 12 3.9 0 7.6-2.6 8.6-7 .2-.8.3-1.6.3-2.5v-5.7zM234.6 468.1c0 12-8.3 17.2-16.1 17.2-8.8 0-15.5-6.4-15.5-16.6 0-10.8 7.1-17.2 16-17.2 9.3 0 15.6 6.7 15.6 16.6zm-25.7.4c0 7.1 4.1 12.4 9.8 12.4 5.6 0 9.8-5.3 9.8-12.6 0-5.5-2.7-12.4-9.7-12.4-6.9 0-9.9 6.4-9.9 12.6zM243.9 452.2l4.3 16.4c.9 3.6 1.8 7 2.4 10.3h.2c.7-3.3 1.8-6.8 2.9-10.2l5.3-16.5h4.9l5 16.2c1.2 3.9 2.1 7.3 2.9 10.6h.2c.5-3.3 1.4-6.7 2.5-10.5l4.6-16.2h5.8l-10.4 32.3h-5.3l-4.9-15.4c-1.1-3.6-2.1-6.8-2.9-10.6h-.1c-.8 3.9-1.8 7.2-2.9 10.7l-5.2 15.4h-5.3l-9.8-32.3h5.8zM289.5 478.6c1.7 1.1 4.8 2.3 7.8 2.3 4.3 0 6.3-2.1 6.3-4.8 0-2.8-1.7-4.3-6-5.9-5.8-2.1-8.6-5.3-8.6-9.2 0-5.2 4.2-9.5 11.2-9.5 3.3 0 6.1.9 8 2l-1.5 4.3c-1.3-.8-3.6-1.9-6.6-1.9-3.5 0-5.4 2-5.4 4.4 0 2.7 1.9 3.9 6.1 5.5 5.6 2.1 8.5 4.9 8.5 9.8 0 5.7-4.4 9.7-12.1 9.7-3.5 0-6.8-.9-9.1-2.2l1.4-4.5z"/><g><path d="M157.3 104v115.3H38v-98.9L157.3 104zM38 234h119.4v113.9L38 331.5V234zM329.2 80.3v139H170.5V102.2l158.7-21.9zM170.5 234h158.8v137.6l-158.8-21.9V234z" fill="#194a7d"/></g></svg>