<svg xmlns="http://www.w3.org/2000/svg" viewBox="0 0 367 512"><path d="M328.2 306.3c-9.4 28.3-41.5 91.1-78.8 91.6-21.6 0-34.2-13.7-58.7-13.7-25.2 0-38.9 13.3-58.2 13.7-37 1.2-72.5-68-82.3-96.2-7.5-21.4-11.2-42.1-11.2-62.3 0-68.1 45.5-101.6 88.4-102.3 20.7 0 47.2 15.1 58.7 15.1 10.9 0 40.7-18.1 68-15.9 28.8 2.2 50.6 13.6 65.1 34.3-25.8 15.7-38.6 36.9-38.4 65.1 0 1.5-2.7 47 47.4 70.6zM183.9 136c-1.7-21.2 6.2-40 19.7-55.2 12.2-14.2 33.6-25.7 52.1-26.8.6 8.1 2.6 30.8-18.4 55.7-15.1 17.5-33.3 27.8-53.4 26.3z" fill="#194a7d"/><path d="M128.6 464.8c-.3-6.3-.7-13.8-.7-19.4h-.2c-1.5 5.3-3.4 10.9-5.7 17.1l-8 21.9h-4.4l-7.3-21.5c-2.1-6.3-3.9-12.2-5.2-17.5H97c-.1 5.6-.5 13.2-.9 19.9L95 484.6h-5.5l3.1-45h7.4l7.7 21.8c1.9 5.5 3.4 10.5 4.5 15.2h.2c1.1-4.5 2.7-9.5 4.7-15.2l8-21.8h7.4l2.8 45h-5.7l-1-19.8zM162.5 484.6l-.5-4.1h-.2c-1.8 2.5-5.3 4.8-9.9 4.8-6.5 0-9.9-4.6-9.9-9.3 0-7.8 7-12.1 19.4-12v-.7c0-2.7-.7-7.5-7.4-7.5-3 0-6.1.9-8.4 2.4l-1.3-3.9c2.7-1.7 6.5-2.9 10.6-2.9 9.9 0 12.3 6.8 12.3 13.2v12.1c0 2.8.1 5.5.5 7.8h-5.2zm-.8-16.5c-6.4-.1-13.7 1-13.7 7.3 0 3.8 2.5 5.6 5.5 5.6 4.2 0 6.9-2.7 7.8-5.4.2-.6.3-1.3.3-1.9v-5.6zM199.9 483.4c-1.5.8-4.9 1.9-9.3 1.9-9.8 0-16.1-6.6-16.1-16.5 0-10 6.8-17.2 17.4-17.2 3.5 0 6.5.9 8.2 1.7l-1.3 4.5c-1.4-.8-3.6-1.5-6.8-1.5-7.4 0-11.4 5.5-11.4 12.2 0 7.5 4.8 12.1 11.2 12.1 3.3 0 5.5-.9 7.2-1.6l.9 4.4zM245.5 461.6c0 15.5-9.4 23.7-20.9 23.7-11.9 0-20.3-9.2-20.3-22.9 0-14.3 8.9-23.7 20.9-23.7 12.3.1 20.3 9.5 20.3 22.9zm-35 .7c0 9.6 5.2 18.2 14.4 18.2s14.4-8.5 14.4-18.7c0-9-4.7-18.3-14.4-18.3-9.6 0-14.4 8.9-14.4 18.8zM252.2 477.5c2.6 1.6 6.4 2.9 10.4 2.9 5.9 0 9.4-3.1 9.4-7.7 0-4.2-2.4-6.6-8.5-9-7.4-2.6-11.9-6.4-11.9-12.8 0-7 5.8-12.2 14.6-12.2 4.6 0 8 1.1 10 2.2l-1.6 4.7c-1.5-.8-4.5-2.1-8.6-2.1-6.1 0-8.5 3.7-8.5 6.8 0 4.2 2.7 6.3 9 8.7 7.6 2.9 11.5 6.6 11.5 13.2 0 7-5.1 13-15.8 13-4.3 0-9.1-1.3-11.5-2.9l1.5-4.8z"/></svg>