<svg version="1.1" id="Layer_1" xmlns="http://www.w3.org/2000/svg" x="0" y="0" viewBox="0 0 367 512" xml:space="preserve"><style>.st1{display:inline}</style><path d="M328.1 347.3c-.3 5.6-4.4 9.4-9.5 12.5-10.2 6.2-25.5 10.8-34.8 22-9.7 11.6-21.7 18.2-33 19.1-11.3.9-21.9-4.3-27.6-15.7v-.1c-.7-1.4-1.3-3-1.7-4.6-14.7.8-27.5-3.6-37.7-2.8-15 .8-24.5 4.4-33 4.5-3.3 7.3-9.8 12-17.7 13.8-10.9 2.5-24.7 0-38.2-7.1-12.6-6.7-28.7-6.1-40.6-8.5-5.9-1.2-11.1-3.4-13.7-8.4-2.5-5-2.1-11.8 1.5-21.7 1.2-3.5.3-8.7-.5-14.2-.4-2.7-.8-5.4-.8-8.1 0-2.9.5-5.8 1.9-8.5 3.1-5.8 8.1-8.3 12.6-9.9 4.6-1.6 8.7-2.7 11.6-5.7 3.6-3.8 6.9-9.8 11.3-13.8-1.8-11.8.1-24.2 4.2-36.4 8.6-25.9 26.8-50.7 39.7-66.1 11-15.7 14.2-28.2 15.4-44.2.7-21.8-16.8-92.6 53.2-92.5 55.3.1 52.2 58.4 51.8 89.8-.2 20.6 11.2 34.5 22.8 49.2 10.4 12.3 24 30.3 31.8 50.9 6.4 16.8 8.8 35.4 2.5 54.1.9.3 1.9.8 2.8 1.4 1 .6 1.9 1.2 2.7 2 4.5 3.8 6 9.8 7.2 15.3 1.3 5.5 2.5 10.7 4.9 13.5 7.9 8.4 11.2 14.6 10.9 20.2zm-207.7-21.8L107 301.2c-4.6-6.3-9.4-10.1-15-10.9-5.3-.8-8.6 1-12.1 4.7-3.3 3.5-6 8.4-9.8 12.3-5.3 4.4-6.4 4.2-13.4 6.8-4.3 1.5-7.7 3.1-10.1 7.7-1.9 3.4-1.4 8.3-.6 13.7.8 5.4 2.1 11.1.4 16.3v.1c-3.4 9.4-3.4 14.8-1.8 18 5.4 10.5 31.9 4.2 52.3 15 21.5 11.2 49.6 11.7 51.5-12.3 1.5-14-21.5-33.5-28-47.1zM225.6 350c2.2-7.5 4.3-14.6 4.7-19.8.5-10.4 1.1-19.6 3-27.3 2.1-8.6 6.4-15.8 14.6-18.7 1.6-14.4 12.8-14.4 26.2-8.5 12.9 5.8 17.8 10.9 15.6 17.8.7 0 1.4-.1 2.9 0 3.6-11.6-9.8-19.1-21-23.8 2-8.2 1.7-16.5-.3-24.4-4.1-17.3-15.5-32.7-24.1-40.3-1.6-.1-1.5 1.3 1.8 4.4 7.9 7.3 25.4 33.6 15.9 58.1-2.6-.7-5.2-1-7.4-1-3.6-19.9-12-36.4-16.2-44.2-7.9-14.6-20.2-44.7-25.4-65.4-3.1 4.4-8.5 8.1-15.3 10.3-3.2 1-6.6 3.8-10.9 6.2-9.5 5.5-20.5 6-29-.8-3.1-2.5-5.5-5.2-8.6-7-1.1-.6-3.5-2.3-4.2-2.8-1.4 25.9-18.7 58.3-26.9 77.1-5.7 13.5-9 27.9-9.4 42.1-14.9-19.9-4-45.3 1.8-56.3 6.5-12 7.5-15.4 6-14.2-5.9 9.6-15 24.8-18.6 40.5-1.9 8.1-2.2 16.4.2 24.1 2.4 7.7 7.6 14.7 16.8 20.5 0 0 17 9.8 26.2 22.2 5 6.8 6.6 12.8 5 17-1.7 4.6-6.6 6.1-11.4 6.1 3.3 4.1 7 8.9 9.8 13.4 25.8 17.2 56.3 10.3 78.2-5.3zm-82.3-197.4c1 3.4 4.2 7.2 10.1 10.5 5.3 3.1 8.2 7.9 13.7 10.3 1.8.8 3.9 1.3 6.6 1.4 12.6.7 18.5-7.7 26.1-10.2 8-2.5 13.7-7.5 15.5-12.4 2.2-5.8-1.5-10.1-7.2-12.5-7.7-3.3-11.2-3.6-15.5-6.4-7-4.5-12.8-6.1-17.7-6.1-9.9 0-15.9 6.7-19.1 9.7-.3.3-5.4 4-9.6 7.2-2.9 2.4-3.8 5.2-2.9 8.5zm6.4-14.3c5.4-3.9 4.7-3.2 4-3.8-5.5-4.7-4.5-18.7 1.2-19.2 4.3-.3 7.4 7.3 6.6 13.4 2.1-1.4 4.6-2.5 7-3.1 1.2-13.2-6.2-22.9-13-22.9-12.9 0-16.4 25.7-5.8 35.6zm-2 9.8c1.7.2 1.9 2.4 3 3.3 1.4 1.3 3.1 3 5.2 4.7 4.2 3.3 9.9 6.6 17 6.6s15.4-4.1 20.5-7c2.8-1.6 6.5-4.5 9.5-6.7 2.3-1.7 2.2-3.7 4.1-3.5 1.9.2.5 2.2-2.1 4.5-2.7 2.3-6.8 5.3-10.1 7.1-6.4 3.3-13.8 7.4-21.8 7.4-7.9 0-14.1-3.7-18.7-7.3-2.3-1.8-4.1-3.5-5.5-4.8-2.3-1.7-2-4.3-1.1-4.3zm16.7-12.7c-.1-1 1.3-1.6 2.2-2 1.2-.5 2.7-.7 3.8-.1.3.1.5.5.4.8-.3.8-1.7.7-2.4 1.1-.7.3-1.3 1.2-2.1 1.2-.6 0-1.8-.3-1.9-1zM179 134c-.1-.3.1-.6.4-.8 1.1-.6 2.6-.4 3.8.1.9.4 2.3 1 2.2 2-.1.8-1.2 1-2 1s-1.4-.8-2.1-1.2c-.7-.3-2.1-.2-2.3-1.1zm2.3-8.5c2.5.6 6.1 1.6 8.9 3-1.4-8.3 3.1-16.1 8.1-15.7 6.1.2 9.5 10.6 6.2 18.7-.5 1.3-1.9 2.3-2.7 3.1 4.6 1.6 7.5 2.8 8.6 3.3 5.4-6.5 7.4-17.9 2.9-27.6-6.7-14.6-23.4-14.9-30.1.3-2.1 4.9-2.5 10.2-1.9 14.9zm132.8 204.7c-6.8-7.7-4.9-22.6-11.7-28.4-4.7-4.1-9.3-3.7-15.5-3.5-5.3 6-17.6 13.4-26.2 11.2-7.9-2-12.3-11.2-12.9-20.2-.2.1-.5.2-.7.3-4.8 2.7-7.6 7.4-9.3 14.4-1.7 7-2.3 16.1-2.9 26.5-.5 8.1-4.2 18-6.8 27.8-2.4 9-4 17.2-.7 24.8 4.9 9.9 13.3 14 23 13.2 9.7-.8 20.8-6.7 29.8-17.4 15-18.2 42.6-20.3 43.2-31.8.3-3.6-2-9-9.3-16.9z" fill="#194a7d"/><path d="M112.3 439.5h5.8v40.2h19.2v4.9h-25.1v-45.1zM150.2 443.1c.1 2-1.4 3.6-3.7 3.6-2.1 0-3.5-1.6-3.5-3.6 0-2.1 1.5-3.7 3.7-3.7 2.1.1 3.5 1.7 3.5 3.7zm-6.6 41.5v-32.3h5.9v32.3h-5.9zM159.3 461c0-3.3-.1-6.1-.3-8.8h5.2l.3 5.3h.1c1.6-3.1 5.3-6.1 10.7-6.1 4.5 0 11.4 2.7 11.4 13.8v19.3h-5.9v-18.6c0-5.2-1.9-9.6-7.5-9.6-3.9 0-6.9 2.7-7.9 6-.3.7-.4 1.7-.4 2.7v19.4h-5.9V461zM223.4 475.7c0 3.3.1 6.3.3 8.8h-5.2l-.3-5.3h-.2c-1.5 2.6-4.9 6-10.7 6-5.1 0-11.2-2.8-11.2-14.2v-18.9h5.9V470c0 6.1 1.9 10.3 7.2 10.3 3.9 0 6.7-2.7 7.8-5.3.3-.9.5-1.9.5-3v-19.8h5.9v23.5zM235.9 452.2l4.6 7c1.2 1.8 2.2 3.5 3.3 5.3h.2c1.1-1.9 2.1-3.6 3.2-5.3l4.5-6.9h6.3l-11 15.6 11.4 16.7h-6.7l-4.7-7.3c-1.3-1.9-2.3-3.7-3.5-5.6h-.1c-1.1 1.9-2.2 3.7-3.4 5.6l-4.7 7.3h-6.5l11.5-16.5-11-15.8h6.6z"/></svg>